<?xml version="1.0" encoding="UTF-8" standalone="no"?>
<!DOCTYPE svg PUBLIC "-//W3C//DTD SVG 1.1//EN" "http://www.w3.org/Graphics/SVG/1.1/DTD/svg11.dtd">
<svg width="100%" height="100%" viewBox="0 0 652 367" version="1.1" xmlns="http://www.w3.org/2000/svg" xmlns:xlink="http://www.w3.org/1999/xlink" xml:space="preserve" xmlns:serif="http://www.serif.com/" style="fill-rule:evenodd;clip-rule:evenodd;stroke-linejoin:round;stroke-miterlimit:2;">
    <g id="Layer-6" serif:id="Layer 6" transform="matrix(1,0,0,1,-181.247,-323.786)">
        <g transform="matrix(239.768,0,0,-239.768,191.126,467.299)">
            <path d="M0.42,0.54C0.4,0.529 0.383,0.513 0.371,0.495C0.358,0.476 0.347,0.453 0.336,0.425C0.325,0.396 0.315,0.372 0.307,0.352L0.032,-0.348C0.02,-0.376 0.012,-0.398 0.007,-0.413C0.002,-0.429 -0,-0.444 -0,-0.459C-0,-0.484 0.011,-0.507 0.032,-0.527C0.053,-0.547 0.077,-0.557 0.104,-0.557C0.137,-0.557 0.16,-0.548 0.174,-0.529C0.188,-0.51 0.206,-0.474 0.226,-0.42L0.277,-0.282L0.715,-0.282L0.767,-0.417C0.774,-0.434 0.782,-0.453 0.792,-0.475C0.801,-0.496 0.81,-0.513 0.818,-0.523C0.827,-0.534 0.837,-0.542 0.849,-0.548C0.862,-0.554 0.876,-0.557 0.893,-0.557C0.923,-0.557 0.948,-0.547 0.969,-0.526C0.99,-0.505 1,-0.482 1,-0.457C1,-0.433 0.989,-0.395 0.967,-0.342L0.685,0.354C0.672,0.388 0.661,0.416 0.653,0.437C0.644,0.458 0.633,0.477 0.621,0.496C0.608,0.514 0.592,0.529 0.572,0.54C0.551,0.552 0.526,0.557 0.496,0.557C0.466,0.557 0.441,0.552 0.42,0.54ZM0.494,0.327L0.657,-0.118L0.335,-0.118L0.494,0.327Z" style="fill:url(#_Linear1);fill-rule:nonzero;"/>
        </g>
        <g transform="matrix(180.884,0,0,-180.884,445.174,502.999)">
            <path d="M0.155,0.517C0.116,0.517 0.086,0.508 0.065,0.49C0.044,0.472 0.033,0.447 0.033,0.417C0.033,0.375 0.047,0.349 0.075,0.34C0.103,0.33 0.144,0.325 0.199,0.325L0.595,0.325C0.578,0.302 0.557,0.275 0.53,0.243C0.503,0.211 0.469,0.173 0.428,0.127C0.387,0.081 0.343,0.032 0.295,-0.021C0.247,-0.074 0.194,-0.132 0.135,-0.197C0.08,-0.259 0.044,-0.302 0.026,-0.325C0.009,-0.348 -0,-0.371 -0,-0.393C-0,-0.432 0.013,-0.462 0.038,-0.484C0.063,-0.506 0.1,-0.517 0.151,-0.517L0.872,-0.517C0.915,-0.517 0.947,-0.508 0.968,-0.489C0.989,-0.47 1,-0.446 1,-0.416C1,-0.385 0.989,-0.359 0.968,-0.339C0.946,-0.319 0.915,-0.309 0.872,-0.309L0.351,-0.309L0.838,0.235C0.856,0.255 0.872,0.272 0.884,0.286C0.896,0.3 0.906,0.311 0.913,0.321C0.92,0.331 0.927,0.343 0.933,0.359C0.939,0.374 0.942,0.389 0.942,0.403C0.942,0.446 0.926,0.476 0.896,0.492C0.866,0.509 0.823,0.517 0.766,0.517L0.155,0.517Z" style="fill:url(#_Linear2);fill-rule:nonzero;"/>
        </g>
        <g transform="matrix(182.117,0,0,-182.117,632.757,538.788)">
            <path d="M0.82,0.719C0.805,0.709 0.791,0.69 0.777,0.663C0.764,0.635 0.749,0.596 0.732,0.547L0.52,-0.058L0.296,0.593C0.281,0.638 0.264,0.673 0.245,0.697C0.226,0.721 0.197,0.733 0.159,0.733C0.137,0.733 0.116,0.727 0.095,0.716C0.075,0.704 0.059,0.689 0.047,0.669C0.036,0.65 0.03,0.629 0.03,0.606C0.03,0.585 0.04,0.551 0.06,0.504L0.385,-0.315L0.361,-0.374C0.343,-0.417 0.327,-0.45 0.313,-0.472C0.299,-0.495 0.284,-0.51 0.266,-0.519C0.249,-0.528 0.225,-0.533 0.195,-0.533C0.182,-0.533 0.168,-0.531 0.151,-0.527C0.137,-0.523 0.124,-0.521 0.109,-0.521C0.073,-0.521 0.046,-0.53 0.028,-0.546C0.009,-0.562 -0,-0.586 -0,-0.616C-0,-0.661 0.019,-0.691 0.058,-0.708C0.097,-0.725 0.155,-0.733 0.232,-0.733C0.312,-0.733 0.375,-0.721 0.422,-0.697C0.468,-0.673 0.506,-0.638 0.534,-0.593C0.563,-0.548 0.592,-0.485 0.621,-0.406L0.966,0.496C0.974,0.519 0.982,0.542 0.987,0.565C0.993,0.587 0.997,0.605 1,0.617C1,0.637 0.995,0.656 0.985,0.674C0.975,0.692 0.961,0.707 0.942,0.717C0.924,0.728 0.905,0.733 0.885,0.733C0.857,0.733 0.836,0.728 0.82,0.719Z" style="fill:url(#_Linear3);fill-rule:nonzero;"/>
        </g>
        <g>
            <g transform="matrix(1,0,0,1,280.127,435.09)">
                <path d="M0,56.417L51.571,56.417C57.819,56.417 62.165,50.203 60.021,44.334L34,-26.9C31.113,-34.804 19.923,-34.771 17.082,-26.851L-8.468,44.383C-10.57,50.244 -6.227,56.417 0,56.417M90.879,128.171L80.744,101.529C79.417,98.039 76.07,95.732 72.336,95.732L-20.286,95.732C-24.043,95.732 -27.406,98.067 -28.717,101.588L-38.877,128.876C-43.698,141.806 -47.81,150.533 -51.218,155.056C-54.628,159.58 -60.209,161.843 -67.966,161.843C-74.55,161.843 -80.368,159.433 -85.42,154.617C-90.475,149.798 -93.001,144.332 -93.001,138.22C-93.001,134.695 -92.414,131.052 -91.238,127.289C-90.064,123.529 -88.125,118.298 -85.42,111.599L-19.308,-56.238C-17.429,-61.056 -15.165,-66.844 -12.52,-73.604C-9.875,-80.361 -7.055,-85.972 -4.058,-90.44C-1.061,-94.906 2.876,-98.52 7.754,-101.283C12.63,-104.043 18.655,-105.426 25.825,-105.426C33.111,-105.426 39.193,-104.043 44.072,-101.283C48.948,-98.52 52.887,-94.964 55.884,-90.617C58.881,-86.267 61.407,-81.595 63.465,-76.601C65.52,-71.604 68.137,-64.935 71.31,-56.591L138.833,110.189C144.122,122.882 146.767,132.111 146.767,137.867C146.767,143.861 144.268,149.357 139.274,154.351C134.277,159.345 128.255,161.843 121.203,161.843C117.087,161.843 113.562,161.109 110.625,159.64C107.686,158.169 105.218,156.175 103.221,153.646C101.221,151.121 99.078,147.242 96.786,142.011C94.494,136.783 92.524,132.167 90.879,128.171" style="fill-opacity:0.5;fill-rule:nonzero;"/>
            </g>
            <g transform="matrix(1,0,0,1,276.127,431.09)">
                <path d="M0,56.417L51.571,56.417C57.819,56.417 62.165,50.203 60.021,44.334L34,-26.9C31.113,-34.804 19.923,-34.771 17.082,-26.851L-8.468,44.383C-10.57,50.244 -6.227,56.417 0,56.417M90.879,128.171L80.744,101.529C79.417,98.039 76.07,95.732 72.336,95.732L-20.286,95.732C-24.043,95.732 -27.406,98.067 -28.717,101.588L-38.877,128.876C-43.698,141.806 -47.81,150.533 -51.218,155.056C-54.628,159.58 -60.209,161.843 -67.966,161.843C-74.55,161.843 -80.368,159.433 -85.42,154.617C-90.475,149.798 -93.001,144.332 -93.001,138.22C-93.001,134.695 -92.414,131.052 -91.238,127.289C-90.064,123.529 -88.125,118.298 -85.42,111.599L-19.308,-56.238C-17.429,-61.056 -15.165,-66.844 -12.52,-73.604C-9.875,-80.361 -7.055,-85.972 -4.058,-90.44C-1.061,-94.906 2.876,-98.52 7.754,-101.283C12.63,-104.043 18.655,-105.426 25.825,-105.426C33.111,-105.426 39.193,-104.043 44.072,-101.283C48.948,-98.52 52.887,-94.964 55.884,-90.617C58.881,-86.267 61.407,-81.595 63.465,-76.601C65.52,-71.604 68.137,-64.935 71.31,-56.591L138.833,110.189C144.122,122.882 146.767,132.111 146.767,137.867C146.767,143.861 144.268,149.357 139.274,154.351C134.277,159.345 128.255,161.843 121.203,161.843C117.087,161.843 113.562,161.109 110.625,159.64C107.686,158.169 105.218,156.175 103.221,153.646C101.221,151.121 99.078,147.242 96.786,142.011C94.494,136.783 92.524,132.167 90.879,128.171" style="fill:white;fill-rule:nonzero;"/>
            </g>
        </g>
        <g>
            <g transform="matrix(1,0,0,1,592.792,541.577)">
                <path d="M0,-85.153L-74.739,-1.595C-79.923,4.2 -75.81,13.398 -68.034,13.398L6.17,13.398C13.809,13.398 19.568,15.191 23.447,18.775C27.326,22.363 29.266,26.974 29.266,32.615C29.266,38.023 27.354,42.429 23.535,45.837C19.715,49.247 13.927,50.951 6.17,50.951L-124.292,50.951C-133.459,50.951 -140.308,48.952 -144.831,44.956C-149.357,40.962 -151.619,35.495 -151.619,28.56C-151.619,24.447 -150.032,20.304 -146.858,16.13C-143.685,11.96 -137.104,4.29 -127.113,-6.876C-116.535,-18.628 -106.927,-29.266 -98.288,-38.786C-89.649,-48.306 -81.627,-57.21 -74.223,-65.496C-66.818,-73.782 -60.678,-80.803 -55.8,-86.564C-50.851,-92.41 -55.007,-101.373 -62.666,-101.373L-115.653,-101.373C-125.526,-101.373 -132.991,-102.254 -138.043,-104.017C-143.098,-105.78 -145.625,-110.422 -145.625,-117.945C-145.625,-123.468 -143.715,-127.876 -139.895,-131.167C-136.077,-134.456 -130.639,-136.104 -123.587,-136.104L-13.047,-136.104C-2.821,-136.104 5.024,-134.605 10.489,-131.608C15.955,-128.611 18.687,-123.234 18.687,-115.477C18.687,-112.89 18.158,-110.215 17.101,-107.455C16.043,-104.692 14.866,-102.43 13.574,-100.668C12.28,-98.904 10.517,-96.758 8.285,-94.233C6.052,-91.704 3.289,-88.679 0,-85.153" style="fill-opacity:0.5;fill-rule:nonzero;"/>
            </g>
            <g transform="matrix(1,0,0,1,588.792,537.577)">
                <path d="M0,-85.153L-74.739,-1.595C-79.923,4.2 -75.81,13.398 -68.034,13.398L6.17,13.398C13.809,13.398 19.568,15.191 23.447,18.775C27.326,22.363 29.266,26.974 29.266,32.615C29.266,38.023 27.354,42.429 23.535,45.837C19.715,49.247 13.927,50.951 6.17,50.951L-124.292,50.951C-133.459,50.951 -140.308,48.952 -144.831,44.956C-149.357,40.962 -151.619,35.495 -151.619,28.56C-151.619,24.447 -150.032,20.304 -146.858,16.13C-143.685,11.96 -137.104,4.29 -127.113,-6.876C-116.535,-18.628 -106.927,-29.266 -98.288,-38.786C-89.649,-48.306 -81.627,-57.21 -74.223,-65.496C-66.818,-73.782 -60.678,-80.803 -55.8,-86.564C-50.851,-92.41 -55.007,-101.373 -62.666,-101.373L-115.653,-101.373C-125.526,-101.373 -132.991,-102.254 -138.043,-104.017C-143.098,-105.78 -145.625,-110.422 -145.625,-117.945C-145.625,-123.468 -143.715,-127.876 -139.895,-131.167C-136.077,-134.456 -130.639,-136.104 -123.587,-136.104L-13.047,-136.104C-2.821,-136.104 5.024,-134.605 10.489,-131.608C15.955,-128.611 18.687,-123.234 18.687,-115.477C18.687,-112.89 18.158,-110.215 17.101,-107.455C16.043,-104.692 14.866,-102.43 13.574,-100.668C12.28,-98.904 10.517,-96.758 8.285,-94.233C6.052,-91.704 3.289,-88.679 0,-85.153" style="fill:white;fill-rule:nonzero;"/>
            </g>
        </g>
        <g>
            <g transform="matrix(1,0,0,1,694.517,466.65)">
                <path d="M0,136.278L3.03,128.883C3.913,126.728 3.927,124.315 3.067,122.151L-54.829,-23.625C-58.474,-32.203 -60.295,-38.434 -60.295,-42.312C-60.295,-46.425 -59.237,-50.246 -57.121,-53.772C-55.006,-57.298 -52.097,-60.119 -48.395,-62.234C-44.692,-64.35 -40.844,-65.408 -36.847,-65.408C-29.913,-65.408 -24.683,-63.204 -21.156,-58.797C-17.631,-54.389 -14.518,-48.07 -11.813,-39.845L20.486,54.116C23.261,62.186 34.662,62.22 37.484,54.167L67.522,-31.558C70.577,-40.489 73.34,-47.483 75.809,-52.538C78.276,-57.59 80.891,-61 83.653,-62.764C86.414,-64.526 90.322,-65.408 95.378,-65.408C99.02,-65.408 102.518,-64.438 105.867,-62.499C109.217,-60.559 111.801,-57.943 113.624,-54.654C115.263,-51.691 116.166,-48.585 116.33,-45.339C116.367,-44.602 116.278,-43.872 116.118,-43.152C115.644,-41.017 114.96,-38.21 114.065,-34.732C113.008,-30.616 111.713,-26.446 110.187,-22.214L47.424,142.096C42.017,156.553 36.728,167.895 31.558,176.122C26.384,184.348 19.538,190.667 11.019,195.075C2.495,199.483 -8.992,201.686 -23.448,201.686C-37.552,201.686 -48.13,200.157 -55.183,197.102C-62.234,194.044 -65.76,188.464 -65.76,180.354C-65.76,174.827 -64.085,170.569 -60.735,167.571C-57.386,164.575 -52.422,163.077 -45.838,163.077C-43.255,163.077 -40.726,163.428 -38.258,164.133C-35.202,164.839 -32.558,165.192 -30.324,165.192C-24.801,165.192 -20.451,164.368 -17.277,162.723C-14.104,161.077 -11.256,158.227 -8.728,154.173C-6.201,150.118 -3.292,144.151 0,136.278" style="fill-opacity:0.5;fill-rule:nonzero;"/>
            </g>
            <g transform="matrix(1,0,0,1,690.517,462.65)">
                <path d="M0,136.278L3.03,128.883C3.913,126.728 3.927,124.315 3.067,122.151L-54.829,-23.625C-58.474,-32.203 -60.295,-38.434 -60.295,-42.312C-60.295,-46.425 -59.237,-50.246 -57.121,-53.772C-55.006,-57.298 -52.097,-60.119 -48.395,-62.234C-44.692,-64.35 -40.844,-65.408 -36.847,-65.408C-29.913,-65.408 -24.683,-63.204 -21.156,-58.797C-17.631,-54.389 -14.518,-48.07 -11.813,-39.845L20.486,54.116C23.261,62.186 34.662,62.22 37.484,54.167L67.522,-31.558C70.577,-40.489 73.34,-47.483 75.809,-52.538C78.276,-57.59 80.891,-61 83.653,-62.764C86.414,-64.526 90.322,-65.408 95.378,-65.408C99.02,-65.408 102.518,-64.438 105.867,-62.499C109.217,-60.559 111.801,-57.943 113.624,-54.654C115.263,-51.691 116.166,-48.585 116.33,-45.339C116.367,-44.602 116.278,-43.872 116.118,-43.152C115.644,-41.017 114.96,-38.21 114.065,-34.732C113.008,-30.616 111.713,-26.446 110.187,-22.214L47.424,142.096C42.017,156.553 36.728,167.895 31.558,176.122C26.384,184.348 19.538,190.667 11.019,195.075C2.495,199.483 -8.992,201.686 -23.448,201.686C-37.552,201.686 -48.13,200.157 -55.183,197.102C-62.234,194.044 -65.76,188.464 -65.76,180.354C-65.76,174.827 -64.085,170.569 -60.735,167.571C-57.386,164.575 -52.422,163.077 -45.838,163.077C-43.255,163.077 -40.726,163.428 -38.258,164.133C-35.202,164.839 -32.558,165.192 -30.324,165.192C-24.801,165.192 -20.451,164.368 -17.277,162.723C-14.104,161.077 -11.256,158.227 -8.728,154.173C-6.201,150.118 -3.292,144.151 0,136.278" style="fill:white;fill-rule:nonzero;"/>
            </g>
        </g>
    </g>
    <defs>
        <linearGradient id="_Linear1" x1="0" y1="0" x2="1" y2="0" gradientUnits="userSpaceOnUse" gradientTransform="matrix(0.966636,1.1147,1.1147,-0.966636,-9.20475e-07,-0.540667)"><stop offset="0" style="stop-color:rgb(128,66,209);stop-opacity:1"/><stop offset="0.11" style="stop-color:rgb(3,114,255);stop-opacity:1"/><stop offset="0.25" style="stop-color:rgb(1,209,255);stop-opacity:1"/><stop offset="0.41" style="stop-color:rgb(78,193,12);stop-opacity:1"/><stop offset="0.58" style="stop-color:rgb(255,199,0);stop-opacity:1"/><stop offset="0.75" style="stop-color:rgb(254,125,0);stop-opacity:1"/><stop offset="0.9" style="stop-color:rgb(243,44,2);stop-opacity:1"/><stop offset="1" style="stop-color:black;stop-opacity:1"/></linearGradient>
        <linearGradient id="_Linear2" x1="0" y1="0" x2="1" y2="0" gradientUnits="userSpaceOnUse" gradientTransform="matrix(1.04423,-1.07834,-1.07834,-1.04423,-0.0442305,0.56128)"><stop offset="0" style="stop-color:black;stop-opacity:1"/><stop offset="0.1" style="stop-color:rgb(243,44,2);stop-opacity:1"/><stop offset="0.25" style="stop-color:rgb(254,125,0);stop-opacity:1"/><stop offset="0.42" style="stop-color:rgb(255,199,0);stop-opacity:1"/><stop offset="0.59" style="stop-color:rgb(78,193,12);stop-opacity:1"/><stop offset="0.75" style="stop-color:rgb(1,209,255);stop-opacity:1"/><stop offset="0.89" style="stop-color:rgb(3,114,255);stop-opacity:1"/><stop offset="1" style="stop-color:rgb(128,66,209);stop-opacity:1"/></linearGradient>
        <linearGradient id="_Linear3" x1="0" y1="0" x2="1" y2="0" gradientUnits="userSpaceOnUse" gradientTransform="matrix(1,0,0,-1,0,1.99432e-06)"><stop offset="0" style="stop-color:rgb(128,66,209);stop-opacity:1"/><stop offset="0.11" style="stop-color:rgb(3,114,255);stop-opacity:1"/><stop offset="0.25" style="stop-color:rgb(1,209,255);stop-opacity:1"/><stop offset="0.41" style="stop-color:rgb(78,193,12);stop-opacity:1"/><stop offset="0.58" style="stop-color:rgb(255,199,0);stop-opacity:1"/><stop offset="0.75" style="stop-color:rgb(254,125,0);stop-opacity:1"/><stop offset="0.9" style="stop-color:rgb(243,44,2);stop-opacity:1"/><stop offset="1" style="stop-color:black;stop-opacity:1"/></linearGradient>
    </defs>
</svg>
